<svg id="Layer_1" xmlns="http://www.w3.org/2000/svg" viewBox="0 0 100 100"><style>.st0{stroke:#000;stroke-width:4;stroke-linecap:round;stroke-linejoin:round;stroke-miterlimit:10}.st0,.st1{fill:none}.st2{display:none}.st3{fill:#f4623b}.st4{fill:#fdebe6}.st5{fill:#f8c4b7}.st6{fill:#007bb5}.st7{fill:#fff}.st8{fill:#231f20}</style><path class="st1" d="M51.83 39.676c-5.44 0-9.088 2.982-10.581 5.81h-.155v-4.914H30.378v35.976h11.17v-17.8c0-4.691.887-9.233 6.703-9.233 5.73 0 5.812 5.364 5.812 9.54v17.493h11.17v-19.73c0-9.692-2.09-17.142-13.403-17.142z"/><path class="st6" d="M70.804 12.308H6.558C3.495 12.308 1 14.741 1 17.739v64.517c0 3.006 2.495 5.436 5.558 5.436h64.246c3.076 0 5.583-2.43 5.583-5.436V17.739c0-2.998-2.507-5.431-5.583-5.431zm-47.44 64.239H12.17V40.572h11.194v35.975zm-5.595-40.896a6.481 6.481 0 0 1-6.487-6.485 6.485 6.485 0 0 1 12.969 0 6.484 6.484 0 0 1-6.482 6.485zm47.464 40.896h-11.17V59.054c0-4.176-.082-9.54-5.812-9.54-5.817 0-6.703 4.542-6.703 9.233v17.8h-11.17V40.572h10.716v4.914h.155c1.493-2.828 5.141-5.81 10.581-5.81 11.313 0 13.403 7.45 13.403 17.141v19.73z"/><path class="st7" d="M17.769 22.686a6.481 6.481 0 0 0-6.487 6.481 6.484 6.484 0 1 0 12.969 0 6.485 6.485 0 0 0-6.482-6.481zM12.17 40.572h11.194v35.976H12.17z"/><path class="st8" d="M81.405 68.543h2.564v8.004h1.399v-8.004h2.564v-1.395h-6.527zm15.607-1.395l-2.744 6.9-2.74-6.9H89.54v9.399h1.387v-7.153l2.879 7.153h.928l2.876-7.153v7.153H99v-9.399z"/></svg>